<?xml version="1.0" standalone="no"?>
<!DOCTYPE svg PUBLIC "-//W3C//DTD SVG 20010904//EN"
 "http://www.w3.org/TR/2001/REC-SVG-20010904/DTD/svg10.dtd">
<svg version="1.0" xmlns="http://www.w3.org/2000/svg"
 width="1000.000000pt" height="1000.000000pt" viewBox="0 0 1000.000000 1000.000000"
 preserveAspectRatio="xMidYMid meet">
<metadata>
Created by potrace 1.11, written by Peter Selinger 2001-2013
</metadata>
<g transform="translate(0.000000,1000.000000) scale(0.100000,-0.100000)"
fill="#000000" stroke="none">
<path d="M1439 9985 c-265 -36 -523 -140 -754 -304 -102 -72 -294 -264 -366
-366 -173 -245 -279 -519 -309 -800 -8 -82 -10 -1000 -8 -3585 l3 -3475 27
-121 c163 -728 731 -1242 1463 -1324 128 -14 6856 -14 6996 1 806 82 1423 704
1499 1510 8 80 10 1137 8 3564 -4 3213 -5 3456 -21 3535 -55 270 -159 510
-305 705 -252 334 -589 549 -1006 643 l-121 27 -3505 1 c-2858 2 -3523 0
-3601 -11z m3931 -2228 c319 -48 571 -122 795 -232 427 -210 698 -513 839
-935 65 -197 96 -395 96 -628 0 -531 -154 -957 -463 -1279 -163 -169 -349
-295 -576 -391 -412 -174 -759 -223 -1571 -221 l-295 0 -5 -928 -5 -928 -640
0 -640 0 -3 2783 -2 2783 1177 -4 c1052 -3 1190 -5 1293 -20z"/>
<path d="M4198 6814 c-5 -4 -8 -403 -8 -887 l0 -879 438 5 c462 5 512 9 659
57 219 72 369 215 449 430 52 136 68 241 67 425 0 138 -4 173 -26 257 -69 262
-243 448 -497 533 -153 50 -225 57 -665 62 -225 3 -413 2 -417 -3z"/>
</g>
</svg>
